<?xml version="1.0" encoding="UTF-8" standalone="no"?>
<!DOCTYPE svg PUBLIC "-//W3C//DTD SVG 1.1//EN"
"http://www.w3.org/Graphics/SVG/1.1/DTD/svg11.dtd">


<!-- Page 1 -->
<svg x="0" y="0" width="525" height="601" viewBox="0 0 525 601" version="1.1" xmlns="http://www.w3.org/2000/svg" xmlns:xlink="http://www.w3.org/1999/xlink"
style="display: block;margin-left: auto;margin-right: auto;">
<defs>

<style type="text/css"><![CDATA[

.g1_1{
fill: none;
stroke: #7F7F7F;
stroke-width: 0.3094538;
stroke-linecap: butt;
stroke-linejoin: miter;
}
.g2_1{
fill: none;
stroke: #000000;
stroke-width: 0.6189076;
stroke-linecap: butt;
stroke-linejoin: miter;
}
.g3_1{
}
.g4_1{
fill: none;
stroke: #0000FF;
stroke-width: 1.5473155;
stroke-linecap: butt;
stroke-linejoin: miter;
stroke-dasharray: 5,5;
}
.g5_1{
fill: none;
stroke: #FF0000;
stroke-width: 1.5473155;
stroke-linecap: butt;
stroke-linejoin: miter;
stroke-dasharray: 2,4;
}
.g6_1{
fill: none;
stroke: #00FF00;
stroke-width: 1.5473155;
stroke-linecap: butt;
stroke-linejoin: miter;
}
.g7_1{
stroke: #000000;
stroke-width: 0.6189076;
stroke-linecap: butt;
stroke-linejoin: miter;
}
.g8_1{
fill: #FFFFFF;
stroke: #000000;
stroke-width: 0.6189076;
stroke-linecap: butt;
stroke-linejoin: miter;
}

.s1_1{
font-size: 15.47px;
font-family: CMR10_7;
fill: #000000;
}
.s2_1{
font-size: 15.47px;
font-family: CMMI10_8;
fill: #000000;
}
.s3_1{
font-size: 7.74px;
font-family: CMMI5_9;
fill: #000000;
}
.s4_1{
font-size: 15.22px;
font-family: CMR10_7;
fill: #000000;
}

]]></style>

</defs>
<path d="M0,0
L0,601
L525,601
L525,0 Z " 
fill="#FFFFFF" stroke="none" />
<path d="M78,197.5l0,-6.6m73,6.6l0,-6.6m73.1,6.6l0,-6.6" class="g1_1" />
<path d="M38.1,157.7l6.6,0M38.1,121.2l6.6,0M38.1,84.7l6.6,0M38.1,48.2l6.6,0" class="g1_1" />
<path d="M41.4,194.2l194.2,0" class="g2_1" />
<path d="M238.7,194.2l-4.9,-2.4l1.8,2.4l-1.8,2.5Z" class="g3_1" />
<path d="M41.4,194.2l0,-157.5" class="g2_1" />
<path d="M41.4,33.6l-2.4,5l2.4,-1.9l2.5,1.9Z" class="g3_1" />
<text 
x="74" 
y="212" 
dx="0" 
class="s1_1"
>5</text>

<text 
x="143" 
y="212" 
dx="0,0" 
class="s1_1"
>15</text>

<text 
x="216" 
y="212" 
dx="0,0" 
class="s1_1"
>25</text>

<text 
x="5" 
y="162" 
dx="0,0,0,0" 
class="s1_1"
>0.25</text>

<text 
x="12" 
y="126" 
dx="0,0,0" 
class="s1_1"
>0.5</text>

<text 
x="5" 
y="89" 
dx="0,0,0,0" 
class="s1_1"
>0.75</text>

<text 
x="24" 
y="53" 
dx="0" 
class="s1_1"
>1</text>

<path d="M41.4,48.2l1.9,0.4l1.8,0.3L47,49.3l1.8,0.3L50.7,50l1.8,0.3l1.8,0.4L56.2,51L58,51.4l1.9,0.3L61.7,52l1.9,0.4l1.8,0.3l1.9,0.4l1.8,0.3L71,53.7l1.8,0.4l1.8,0.3l1.9,0.4l1.8,0.3l1.9,0.3L82,55.8l1.9,0.3l1.8,0.3l1.9,0.3l1.8,0.4l1.9,0.3l1.8,0.3l1.8,0.4l1.9,0.3l1.8,0.3l1.9,0.3l1.8,0.4l1.9,0.3L106,60l1.9,0.3l1.8,0.3l1.8,0.4l1.9,0.3l1.8,0.3l1.9,0.3l1.8,0.3l1.9,0.4l1.8,0.3l1.9,0.3l1.8,0.3l1.9,0.3l1.8,0.3l1.8,0.3l1.9,0.3l1.8,0.4l1.9,0.3l1.8,0.3l1.9,0.3l1.8,0.3l1.9,0.3l1.8,0.3l1.8,0.3l1.9,0.3l1.8,0.3l1.9,0.3l1.8,0.3l1.9,0.3l1.8,0.3l1.9,0.3l1.8,0.3l1.9,0.3l1.8,0.3l1.8,0.3l1.9,0.3l1.8,0.3l1.9,0.3l1.8,0.3L178,72l1.8,0.3l1.9,0.3l1.8,0.3l1.9,0.3l1.8,0.2l1.8,0.3l1.9,0.3l1.8,0.3l1.9,0.3l1.8,0.3l1.9,0.3l1.8,0.3l1.9,0.2l1.8,0.3l1.8,0.3l1.9,0.3l1.8,0.3l1.9,0.3l1.8,0.2l1.9,0.3l1.8,0.3l1.9,0.3l1.8,0.2l1.9,0.3l1.8,0.3" class="g4_1" />
<path d="M41.4,48.2l1.9,0.1l1.8,0l1.9,0l1.8,0l1.9,0.1l1.8,0l1.8,0.1l1.9,0L58,48.6l1.9,0.1l1.8,0.1l1.9,0.1L65.4,49l1.9,0.1l1.8,0.1L71,49.3l1.8,0.2l1.8,0.1l1.9,0.2l1.8,0.1l1.9,0.2L82,50.3l1.9,0.2l1.8,0.2l1.9,0.2l1.8,0.2l1.9,0.2l1.8,0.2l1.8,0.3L96.8,52l1.8,0.3l1.9,0.2l1.8,0.3l1.9,0.3l1.8,0.2l1.9,0.3l1.8,0.3l1.8,0.3l1.9,0.4l1.8,0.3l1.9,0.3l1.8,0.3l1.9,0.4l1.8,0.3l1.9,0.4l1.8,0.3l1.9,0.4l1.8,0.4l1.8,0.4l1.9,0.4l1.8,0.4l1.9,0.4l1.8,0.4l1.9,0.4l1.8,0.4l1.9,0.5l1.8,0.4l1.8,0.4l1.9,0.5l1.8,0.4l1.9,0.5l1.8,0.5l1.9,0.4l1.8,0.5l1.9,0.5l1.8,0.5l1.9,0.5l1.8,0.5l1.8,0.5l1.9,0.5l1.8,0.5l1.9,0.6l1.8,0.5l1.9,0.5l1.8,0.6l1.9,0.5l1.8,0.5l1.9,0.6l1.8,0.5L189,73l1.9,0.6l1.8,0.5l1.9,0.6l1.8,0.6l1.9,0.6l1.8,0.6l1.9,0.6l1.8,0.6l1.8,0.5l1.9,0.7l1.8,0.6l1.9,0.6l1.8,0.6l1.9,0.6l1.8,0.6l1.9,0.6l1.8,0.7l1.9,0.6l1.8,0.6" class="g5_1" />
<path d="M41.4,48.2l1.9,0.1l1.8,0l1.9,0l1.8,0l1.9,0.1l1.8,0l1.8,0.1l1.9,0L58,48.6l1.9,0.1l1.8,0.1l1.9,0.1L65.4,49l1.9,0.1l1.8,0.2L71,49.4l1.8,0.2l1.8,0.1l1.9,0.2l1.8,0.2l1.9,0.1L82,50.4l1.9,0.2l1.8,0.3l1.9,0.2l1.8,0.2l1.9,0.2l1.8,0.3L94.9,52l1.9,0.3l1.8,0.3l1.9,0.2l1.8,0.3l1.9,0.3l1.8,0.3l1.9,0.3l1.8,0.3l1.8,0.3l1.9,0.4l1.8,0.3l1.9,0.4l1.8,0.3l1.9,0.4l1.8,0.3l1.9,0.4l1.8,0.4l1.9,0.4l1.8,0.4l1.8,0.4l1.9,0.4l1.8,0.4l1.9,0.4l1.8,0.4l1.9,0.5l1.8,0.4l1.9,0.4l1.8,0.5l1.8,0.4l1.9,0.5l1.8,0.5l1.9,0.4l1.8,0.5l1.9,0.5l1.8,0.5l1.9,0.4l1.8,0.5l1.9,0.5l1.8,0.5l1.8,0.6l1.9,0.5l1.8,0.5l1.9,0.5l1.8,0.5l1.9,0.6l1.8,0.5l1.9,0.5l1.8,0.6l1.9,0.5l1.8,0.5l1.8,0.6l1.9,0.5l1.8,0.6l1.9,0.6l1.8,0.5l1.9,0.6l1.8,0.5l1.9,0.6l1.8,0.6l1.8,0.6l1.9,0.5l1.8,0.6l1.9,0.6l1.8,0.6l1.9,0.6l1.8,0.5l1.9,0.6l1.8,0.6l1.9,0.6l1.8,0.6" class="g6_1" />
<path d="M44.5,47.9c0,-1.7,-1.4,-3.1,-3.1,-3.1c-1.7,0,-3.1,1.4,-3.1,3.1c0,1.7,1.4,3.1,3.1,3.1c1.7,0,3.1,-1.4,3.1,-3.1Z" class="g7_1" />
<path d="M137,75.6c0,-1.7,-1.4,-3.1,-3.1,-3.1c-1.7,0,-3.1,1.4,-3.1,3.1c0,1.7,1.4,3.1,3.1,3.1c1.7,0,3.1,-1.4,3.1,-3.1Z" class="g7_1" />
<path d="M44.5,47.9c0,-1.7,-1.4,-3.1,-3.1,-3.1c-1.7,0,-3.1,1.4,-3.1,3.1c0,1.7,1.4,3.1,3.1,3.1c1.7,0,3.1,-1.4,3.1,-3.1Z" class="g7_1" />
<path d="M178.5,71.5c0,-1.7,-1.4,-3.1,-3.1,-3.1c-1.7,0,-3.1,1.4,-3.1,3.1c0,1.7,1.4,3.1,3.1,3.1c1.7,0,3.1,-1.4,3.1,-3.1Z" class="g7_1" />
<path d="M87.1,50.1C87.1,48.3,85.7,47,84,47c-1.7,0,-3.1,1.3,-3.1,3.1c0,1.7,1.4,3.1,3.1,3.1c1.7,0,3.1,-1.4,3.1,-3.1Z" class="g7_1" />
<path d="M44.5,47.9c0,-1.7,-1.4,-3.1,-3.1,-3.1c-1.7,0,-3.1,1.4,-3.1,3.1c0,1.7,1.4,3.1,3.1,3.1c1.7,0,3.1,-1.4,3.1,-3.1Z" class="g7_1" />
<path d="M177.3,82.3c0,-1.7,-1.4,-3.1,-3.1,-3.1c-1.7,0,-3.1,1.4,-3.1,3.1c0,1.7,1.4,3.1,3.1,3.1c1.7,0,3.1,-1.4,3.1,-3.1Z" class="g7_1" />
<path d="M89.7,52c0,-1.7,-1.4,-3.1,-3.1,-3.1c-1.7,0,-3.1,1.4,-3.1,3.1c0,1.8,1.4,3.1,3.1,3.1c1.7,0,3.1,-1.3,3.1,-3.1Z" class="g7_1" />
<path d="M78.2,52.8c0,-1.7,-1.4,-3.1,-3.1,-3.1c-1.7,0,-3.1,1.4,-3.1,3.1c0,1.7,1.4,3.1,3.1,3.1c1.7,0,3.1,-1.4,3.1,-3.1Z" class="g7_1" />
<path d="M44.5,47.9c0,-1.7,-1.4,-3.1,-3.1,-3.1c-1.7,0,-3.1,1.4,-3.1,3.1c0,1.7,1.4,3.1,3.1,3.1c1.7,0,3.1,-1.4,3.1,-3.1Z" class="g7_1" />
<path d="M227.2,86.5c0,-1.7,-1.4,-3.1,-3.1,-3.1c-1.7,0,-3.1,1.4,-3.1,3.1c0,1.7,1.4,3.1,3.1,3.1c1.7,0,3.1,-1.4,3.1,-3.1Z" class="g7_1" />
<path d="M134.9,58.1c0,-1.8,-1.4,-3.1,-3.1,-3.1c-1.7,0,-3.1,1.3,-3.1,3.1c0,1.7,1.4,3,3.1,3c1.7,0,3.1,-1.3,3.1,-3Z" class="g7_1" />
<path d="M95.7,59.4c0,-1.7,-1.4,-3.1,-3.1,-3.1c-1.7,0,-3.1,1.4,-3.1,3.1c0,1.7,1.4,3.1,3.1,3.1c1.7,0,3.1,-1.4,3.1,-3.1Z" class="g7_1" />
<path d="M99.3,52c0,-1.7,-1.4,-3.1,-3.1,-3.1c-1.7,0,-3.1,1.4,-3.1,3.1c0,1.7,1.4,3.1,3.1,3.1c1.7,0,3.1,-1.4,3.1,-3.1Z" class="g7_1" />
<path d="M44.5,47.9c0,-1.7,-1.4,-3.1,-3.1,-3.1c-1.7,0,-3.1,1.4,-3.1,3.1c0,1.7,1.4,3.1,3.1,3.1c1.7,0,3.1,-1.4,3.1,-3.1Z" class="g7_1" />
<path d="M222.3,71.5c0,-1.8,-1.4,-3.1,-3.1,-3.1c-1.7,0,-3.1,1.3,-3.1,3.1c0,1.7,1.4,3,3.1,3c1.7,0,3.1,-1.3,3.1,-3Z" class="g7_1" />
<path d="M132.2,62.9c0,-1.7,-1.4,-3.1,-3.1,-3.1c-1.7,0,-3.1,1.4,-3.1,3.1c0,1.7,1.4,3.1,3.1,3.1c1.7,0,3.1,-1.4,3.1,-3.1Z" class="g7_1" />
<path d="M100.2,60.7c0,-1.7,-1.4,-3.1,-3.1,-3.1C95.4,57.6,94,59,94,60.7c0,1.7,1.4,3.1,3.1,3.1c1.7,0,3.1,-1.4,3.1,-3.1Z" class="g7_1" />
<path d="M89.7,60.4c0,-1.7,-1.4,-3.1,-3.1,-3.1c-1.7,0,-3.1,1.4,-3.1,3.1c0,1.7,1.4,3.1,3.1,3.1c1.7,0,3.1,-1.4,3.1,-3.1Z" class="g7_1" />
<path d="M66.4,56.9c0,-1.7,-1.3,-3.1,-3,-3.1c-1.8,0,-3.1,1.4,-3.1,3.1c0,1.7,1.3,3.1,3.1,3.1c1.7,0,3,-1.4,3,-3.1Z" class="g7_1" />
<path d="M44.5,47.9c0,-1.7,-1.4,-3.1,-3.1,-3.1c-1.7,0,-3.1,1.4,-3.1,3.1c0,1.7,1.4,3.1,3.1,3.1c1.7,0,3.1,-1.4,3.1,-3.1Z" class="g7_1" />
<path d="M227.3,68.8c0,-1.7,-1.3,-3.1,-3.1,-3.1c-1.7,0,-3,1.4,-3,3.1c0,1.7,1.3,3.1,3,3.1c1.8,0,3.1,-1.4,3.1,-3.1Z" class="g7_1" />
<path d="M142,64.4c0,-1.7,-1.4,-3.1,-3.1,-3.1c-1.7,0,-3.1,1.4,-3.1,3.1c0,1.7,1.4,3.1,3.1,3.1c1.7,0,3.1,-1.4,3.1,-3.1Z" class="g7_1" />
<path d="M117.6,59.9c0,-1.7,-1.4,-3.1,-3.1,-3.1c-1.7,0,-3.1,1.4,-3.1,3.1c0,1.7,1.4,3.1,3.1,3.1c1.7,0,3.1,-1.4,3.1,-3.1Z" class="g7_1" />
<path d="M96.8,62.3c0,-1.7,-1.3,-3.1,-3.1,-3.1c-1.7,0,-3,1.4,-3,3.1c0,1.7,1.3,3.1,3,3.1c1.8,0,3.1,-1.4,3.1,-3.1Z" class="g7_1" />
<path d="M89,60.1C89,58.4,87.6,57,85.9,57c-1.8,0,-3.1,1.4,-3.1,3.1c0,1.7,1.3,3.1,3.1,3.1c1.7,0,3.1,-1.4,3.1,-3.1Z" class="g7_1" />
<path d="M67.6,49.6c0,-1.7,-1.4,-3,-3.1,-3c-1.7,0,-3.1,1.3,-3.1,3c0,1.8,1.4,3.1,3.1,3.1c1.7,0,3.1,-1.3,3.1,-3.1Z" class="g7_1" />
<path d="M44.5,47.9c0,-1.7,-1.4,-3.1,-3.1,-3.1c-1.7,0,-3.1,1.4,-3.1,3.1c0,1.7,1.4,3.1,3.1,3.1c1.7,0,3.1,-1.4,3.1,-3.1Z" class="g7_1" />
<path d="M190.7,76.8c0,-1.7,-1.4,-3.1,-3.1,-3.1c-1.7,0,-3.1,1.4,-3.1,3.1c0,1.7,1.4,3.1,3.1,3.1c1.7,0,3.1,-1.4,3.1,-3.1Z" class="g7_1" />
<path d="M109.8,70c0,-1.7,-1.3,-3.1,-3,-3.1c-1.8,0,-3.1,1.4,-3.1,3.1c0,1.7,1.3,3.1,3.1,3.1c1.7,0,3,-1.4,3,-3.1Z" class="g7_1" />
<path d="M100.2,66.8c0,-1.7,-1.4,-3.1,-3.1,-3.1c-1.7,0,-3.1,1.4,-3.1,3.1c0,1.7,1.4,3.1,3.1,3.1c1.7,0,3.1,-1.4,3.1,-3.1Z" class="g7_1" />
<path d="M67.9,66.4c0,-1.7,-1.4,-3.1,-3.1,-3.1c-1.7,0,-3.1,1.4,-3.1,3.1c0,1.7,1.4,3.1,3.1,3.1c1.7,0,3.1,-1.4,3.1,-3.1Z" class="g7_1" />
<path d="M103.4,61c0,-1.7,-1.4,-3.1,-3.1,-3.1c-1.7,0,-3.1,1.4,-3.1,3.1c0,1.7,1.4,3.1,3.1,3.1c1.7,0,3.1,-1.4,3.1,-3.1Z" class="g7_1" />
<path d="M85.9,49.3c0,-1.7,-1.4,-3.1,-3.1,-3.1c-1.7,0,-3.1,1.4,-3.1,3.1c0,1.7,1.4,3.1,3.1,3.1c1.7,0,3.1,-1.4,3.1,-3.1Z" class="g7_1" />
<path d="M81.8,51.1C81.8,49.4,80.4,48,78.7,48c-1.7,0,-3.1,1.4,-3.1,3.1c0,1.7,1.4,3.1,3.1,3.1c1.7,0,3.1,-1.4,3.1,-3.1Z" class="g7_1" />
<path d="M44.5,47.9c0,-1.7,-1.4,-3.1,-3.1,-3.1c-1.7,0,-3.1,1.4,-3.1,3.1c0,1.7,1.4,3.1,3.1,3.1c1.7,0,3.1,-1.4,3.1,-3.1Z" class="g7_1" />
<path d="M227.8,67.7c0,-1.7,-1.4,-3.1,-3.1,-3.1c-1.7,0,-3.1,1.4,-3.1,3.1c0,1.8,1.4,3.1,3.1,3.1c1.7,0,3.1,-1.3,3.1,-3.1Z" class="g7_1" />
<path d="M149.2,66.7c0,-1.7,-1.4,-3.1,-3.1,-3.1c-1.7,0,-3.1,1.4,-3.1,3.1c0,1.7,1.4,3.1,3.1,3.1c1.7,0,3.1,-1.4,3.1,-3.1Z" class="g7_1" />
<path d="M132.5,61.6c0,-1.8,-1.4,-3.1,-3.1,-3.1c-1.7,0,-3.1,1.3,-3.1,3.1c0,1.7,1.4,3.1,3.1,3.1c1.7,0,3.1,-1.4,3.1,-3.1Z" class="g7_1" />
<path d="M105.3,68.3c0,-1.8,-1.4,-3.1,-3.1,-3.1c-1.7,0,-3.1,1.3,-3.1,3.1c0,1.7,1.4,3,3.1,3c1.7,0,3.1,-1.3,3.1,-3Z" class="g7_1" />
<path d="M110.7,67.3c0,-1.7,-1.4,-3.1,-3.1,-3.1c-1.7,0,-3.1,1.4,-3.1,3.1c0,1.7,1.4,3.1,3.1,3.1c1.7,0,3.1,-1.4,3.1,-3.1Z" class="g7_1" />
<path d="M89,51.7C89,50,87.6,48.6,85.9,48.6c-1.8,0,-3.1,1.4,-3.1,3.1c0,1.7,1.3,3.1,3.1,3.1c1.7,0,3.1,-1.4,3.1,-3.1Z" class="g7_1" />
<path d="M66.4,50.5c0,-1.7,-1.3,-3.1,-3,-3.1c-1.8,0,-3.1,1.4,-3.1,3.1c0,1.7,1.3,3.1,3.1,3.1c1.7,0,3,-1.4,3,-3.1Z" class="g7_1" />
<path d="M83.8,51.9c0,-1.7,-1.3,-3.1,-3.1,-3.1c-1.7,0,-3.1,1.4,-3.1,3.1c0,1.7,1.4,3.1,3.1,3.1c1.8,0,3.1,-1.4,3.1,-3.1Z" class="g7_1" />
<path d="M44.5,47.9c0,-1.7,-1.4,-3.1,-3.1,-3.1c-1.7,0,-3.1,1.4,-3.1,3.1c0,1.7,1.4,3.1,3.1,3.1c1.7,0,3.1,-1.4,3.1,-3.1Z" class="g7_1" />
<text 
x="200" 
y="184" 
dx="0" 
class="s2_1"
>r</text>

<text 
x="207" 
y="184" 
dx="0" 
class="s1_1"
>(</text>

<text 
x="213" 
y="184" 
dx="0" 
class="s2_1"
>m</text>

<text 
x="227" 
y="184" 
dx="0" 
class="s1_1"
>)</text>

<text 
x="46" 
y="45" 
dx="0,0,0,0" 
class="s1_1"
>corr</text>

<text 
x="108" 
y="15" 
dx="0,0,0,0,0,0,0,-0.4" 
class="s1_1"
>Humidity</text>

<path d="M40.9,198.1l69.3,0l0,-59.8l-69.3,0l0,59.8Z" class="g8_1" />
<path d="M46.3,150.4l13.2,0l13.2,0" class="g4_1" />
<text 
x="82" 
y="153" 
dx="0" 
class="s2_1"
>ρ</text>

<text 
x="90" 
y="149" 
dx="0" 
class="s3_1"
>I</text>

<path d="M46.3,168.2l13.2,0l13.2,0" class="g5_1" />
<text 
x="79" 
y="171" 
dx="0" 
class="s2_1"
>ρ</text>

<text 
x="87" 
y="167" 
dx="0,0.6" 
class="s3_1"
>II</text>

<path d="M46.3,186.1l13.2,0l13.2,0" class="g6_1" />
<text 
x="76" 
y="189" 
dx="0" 
class="s2_1"
>ρ</text>

<text 
x="84" 
y="185" 
dx="0,0.6,0.6" 
class="s3_1"
>III</text>

<path d="M304.1,197.5l0,-6.6m21.3,6.6l0,-6.6m21.3,6.6l0,-6.6m21.3,6.6l0,-6.6m21.4,6.6l0,-6.6m21.3,6.6l0,-6.6m21.3,6.6l0,-6.6m21.3,6.6l0,-6.6m21.4,6.6l0,-6.6" class="g1_1" />
<path d="M279.4,157.7l6.6,0m-6.6,-36.5l6.6,0M279.4,84.7l6.6,0M279.4,48.2l6.6,0" class="g1_1" />
<path d="M282.7,194.2l194.2,0" class="g2_1" />
<path d="M480,194.2l-4.9,-2.4l1.8,2.4l-1.8,2.5Z" class="g3_1" />
<path d="M282.7,194.2l0,-157.5" class="g2_1" />
<path d="M282.7,33.6l-2.4,5l2.4,-1.9l2.5,1.9Z" class="g3_1" />
<text 
x="300" 
y="212" 
dx="0" 
class="s1_1"
>1</text>

<text 
x="321" 
y="212" 
dx="0" 
class="s1_1"
>2</text>

<text 
x="342" 
y="212" 
dx="0" 
class="s1_1"
>3</text>

<text 
x="364" 
y="212" 
dx="0" 
class="s1_1"
>4</text>

<text 
x="385" 
y="212" 
dx="0" 
class="s1_1"
>5</text>

<text 
x="406" 
y="212" 
dx="0" 
class="s1_1"
>6</text>

<text 
x="428" 
y="212" 
dx="0" 
class="s1_1"
>7</text>

<text 
x="449" 
y="212" 
dx="0" 
class="s1_1"
>8</text>

<text 
x="470" 
y="212" 
dx="0" 
class="s1_1"
>9</text>

<text 
x="246" 
y="162" 
dx="0,0,0,0" 
class="s1_1"
>0.25</text>

<text 
x="254" 
y="126" 
dx="0,0,0" 
class="s1_1"
>0.5</text>

<text 
x="246" 
y="89" 
dx="0,0,0,0" 
class="s1_1"
>0.75</text>

<text 
x="266" 
y="53" 
dx="0" 
class="s1_1"
>1</text>

<path d="M282.7,59.4l2,2l1.9,2l1.9,1.9l2,1.9l1.9,1.9l2,1.9l1.9,1.9l1.9,1.8l2,1.8l1.9,1.7l2,1.8l1.9,1.7l1.9,1.7l2,1.6l1.9,1.6l2,1.7l1.9,1.5l1.9,1.6l2,1.5l1.9,1.6l1.9,1.4l2,1.5l1.9,1.5l2,1.4l1.9,1.4l1.9,1.4l2,1.3l1.9,1.4l2,1.3l1.9,1.3l1.9,1.3l2,1.3l1.9,1.2l2,1.2l1.9,1.2l1.9,1.2l2,1.2l1.9,1.2l1.9,1.1l2,1.1l1.9,1.1l2,1.1l1.9,1.1l1.9,1l2,1.1l1.9,1l2,1l1.9,1l1.9,1l2,1l1.9,0.9l2,0.9l1.9,1l1.9,0.9l2,0.9l1.9,0.8l1.9,0.9l2,0.9l1.9,0.8l2,0.8l1.9,0.9l1.9,0.8l2,0.7l1.9,0.8l2,0.8l1.9,0.8l1.9,0.7l2,0.7l1.9,0.8l2,0.7l1.9,0.7l1.9,0.7l2,0.7l1.9,0.6l1.9,0.7l2,0.6L432,152l2,0.6l1.9,0.6l1.9,0.6l2,0.6l1.9,0.6l2,0.6l1.9,0.6l1.9,0.6l2,0.5l1.9,0.6l1.9,0.5l2,0.6l1.9,0.5l2,0.5l1.9,0.5L463,161l2,0.5l1.9,0.5l2,0.5l1.9,0.5l1.9,0.4l2,0.5" class="g4_1" />
<path d="M282.7,52.8l2,2l1.9,2l1.9,1.9l2,2l1.9,1.9l2,1.8l1.9,1.9l1.9,1.8l2,1.8l1.9,1.7l2,1.8l1.9,1.7l1.9,1.7l2,1.7l1.9,1.6l2,1.6l1.9,1.6l1.9,1.6l2,1.6l1.9,1.5l1.9,1.5l2,1.5l1.9,1.4l2,1.5l1.9,1.4l1.9,1.4l2,1.4l1.9,1.4l2,1.3l1.9,1.3l1.9,1.4l2,1.2l1.9,1.3l2,1.3l1.9,1.2l1.9,1.2l2,1.2l1.9,1.2l1.9,1.2l2,1.1l1.9,1.2l2,1.1l1.9,1.1l1.9,1.1l2,1l1.9,1.1l2,1l1.9,1.1l1.9,1l2,1l1.9,0.9l2,1l1.9,1l1.9,0.9l2,0.9l1.9,0.9l1.9,1l2,0.8l1.9,0.9l2,0.9l1.9,0.8l1.9,0.9l2,0.8l1.9,0.8l2,0.8l1.9,0.8l1.9,0.8l2,0.8l1.9,0.7l2,0.8l1.9,0.7l1.9,0.7l2,0.8l1.9,0.7l1.9,0.7l2,0.6l1.9,0.7l2,0.7l1.9,0.6l1.9,0.7l2,0.6l1.9,0.7l2,0.6l1.9,0.6l1.9,0.6l2,0.6l1.9,0.6l1.9,0.6l2,0.5l1.9,0.6l2,0.6l1.9,0.5l1.9,0.5l2,0.6l1.9,0.5l2,0.5l1.9,0.5l1.9,0.5l2,0.5" class="g5_1" />
<path d="M282.7,53.1l2,2.3l1.9,2.3l1.9,2.2l2,2.2l1.9,2.1l2,2l1.9,2.1l1.9,2l2,1.9l1.9,1.9l2,1.9l1.9,1.8l1.9,1.8l2,1.8l1.9,1.7l2,1.7l1.9,1.6l1.9,1.6l2,1.6l1.9,1.6l1.9,1.5l2,1.5l1.9,1.4l2,1.5l1.9,1.4l1.9,1.4l2,1.3l1.9,1.4l2,1.3l1.9,1.2l1.9,1.3l2,1.2l1.9,1.2l2,1.2l1.9,1.2l1.9,1.1l2,1.2l1.9,1.1l1.9,1.1l2,1l1.9,1.1l2,1l1.9,1l1.9,1l2,1l1.9,0.9l2,1l1.9,0.9l1.9,0.9l2,0.9l1.9,0.8l2,0.9l1.9,0.9l1.9,0.8l2,0.8l1.9,0.8l1.9,0.8l2,0.8l1.9,0.7l2,0.8l1.9,0.7l1.9,0.8l2,0.7l1.9,0.7l2,0.7l1.9,0.7l1.9,0.6l2,0.7l1.9,0.6l2,0.7l1.9,0.6l1.9,0.6l2,0.6l1.9,0.6l1.9,0.6l2,0.6l1.9,0.6l2,0.5l1.9,0.6l1.9,0.5l2,0.6l1.9,0.5l2,0.5l1.9,0.5l1.9,0.5l2,0.5l1.9,0.5l1.9,0.5l2,0.5l1.9,0.5l2,0.4l1.9,0.5l1.9,0.4l2,0.5l1.9,0.4l2,0.4l1.9,0.5l1.9,0.4l2,0.4" class="g6_1" />
<path d="M285.8,59.5c0,-1.7,-1.4,-3.1,-3.1,-3.1c-1.7,0,-3.1,1.4,-3.1,3.1c0,1.7,1.4,3.1,3.1,3.1c1.7,0,3.1,-1.4,3.1,-3.1Z" class="g7_1" />
<path d="M307.2,67.5c0,-1.7,-1.4,-3.1,-3.1,-3.1c-1.7,0,-3.1,1.4,-3.1,3.1c0,1.7,1.4,3.1,3.1,3.1c1.7,0,3.1,-1.4,3.1,-3.1Z" class="g7_1" />
<path d="M328.5,80.8c0,-1.7,-1.4,-3.1,-3.1,-3.1c-1.7,0,-3.1,1.4,-3.1,3.1c0,1.7,1.4,3.1,3.1,3.1c1.7,0,3.1,-1.4,3.1,-3.1Z" class="g7_1" />
<path d="M349.8,95.8c0,-1.7,-1.4,-3.1,-3.1,-3.1c-1.7,0,-3.1,1.4,-3.1,3.1c0,1.7,1.4,3.1,3.1,3.1c1.7,0,3.1,-1.4,3.1,-3.1Z" class="g7_1" />
<path d="M371.1,110.8c0,-1.7,-1.4,-3.1,-3.1,-3.1c-1.7,0,-3.1,1.4,-3.1,3.1c0,1.7,1.4,3.1,3.1,3.1c1.7,0,3.1,-1.4,3.1,-3.1Z" class="g7_1" />
<path d="M392.5,125.7c0,-1.7,-1.4,-3.1,-3.1,-3.1c-1.7,0,-3.1,1.4,-3.1,3.1c0,1.7,1.4,3.1,3.1,3.1c1.7,0,3.1,-1.4,3.1,-3.1Z" class="g7_1" />
<path d="M413.8,140.3c0,-1.7,-1.4,-3.1,-3.1,-3.1c-1.7,0,-3.1,1.4,-3.1,3.1c0,1.7,1.4,3.1,3.1,3.1c1.7,0,3.1,-1.4,3.1,-3.1Z" class="g7_1" />
<path d="M435.1,153.9c0,-1.7,-1.4,-3.1,-3.1,-3.1c-1.7,0,-3.1,1.4,-3.1,3.1c0,1.7,1.4,3.1,3.1,3.1c1.7,0,3.1,-1.4,3.1,-3.1Z" class="g7_1" />
<path d="M456.4,165.3c0,-1.7,-1.3,-3.1,-3.1,-3.1c-1.7,0,-3,1.4,-3,3.1c0,1.7,1.3,3.1,3,3.1c1.8,0,3.1,-1.4,3.1,-3.1Z" class="g7_1" />
<path d="M477.8,175c0,-1.7,-1.4,-3.1,-3.1,-3.1c-1.7,0,-3.1,1.4,-3.1,3.1c0,1.7,1.4,3.1,3.1,3.1c1.7,0,3.1,-1.4,3.1,-3.1Z" class="g7_1" />
<text 
x="448" 
y="184" 
dx="0" 
class="s2_1"
>t</text>

<text 
x="453" 
y="184" 
dx="0" 
class="s1_1"
>(</text>

<text 
x="459" 
y="184" 
dx="0" 
class="s2_1"
>h</text>

<text 
x="468" 
y="184" 
dx="0" 
class="s1_1"
>)</text>

<text 
x="288" 
y="45" 
dx="0,0,0,0" 
class="s1_1"
>corr</text>

<text 
x="349" 
y="15" 
dx="0,0,0,0,0,0,0,-0.4" 
class="s1_1"
>Humidity</text>

<path d="M282.2,198.1l69.3,0l0,-59.8l-69.3,0l0,59.8Z" class="g8_1" />
<path d="M287.6,150.4l13.2,0l13.2,0" class="g4_1" />
<text 
x="323" 
y="153" 
dx="0" 
class="s2_1"
>ρ</text>

<text 
x="331" 
y="149" 
dx="0" 
class="s3_1"
>I</text>

<path d="M287.6,168.2l13.2,0l13.2,0" class="g5_1" />
<text 
x="320" 
y="171" 
dx="0" 
class="s2_1"
>ρ</text>

<text 
x="328" 
y="167" 
dx="0,0.6" 
class="s3_1"
>II</text>

<path d="M287.6,186.1l13.2,0l13.2,0" class="g6_1" />
<text 
x="317" 
y="189" 
dx="0" 
class="s2_1"
>ρ</text>

<text 
x="325" 
y="185" 
dx="0,0.6,0.6" 
class="s3_1"
>III</text>

<path d="M78,468.2l0,-6.6m73,6.6l0,-6.6m73.1,6.6l0,-6.6" class="g1_1" />
<path d="M38.1,428.4l6.6,0M38.1,391.9l6.6,0M38.1,355.4l6.6,0M38.1,318.9l6.6,0" class="g1_1" />
<path d="M41.4,464.9l194.2,0" class="g2_1" />
<path d="M238.7,464.9l-4.9,-2.5l1.8,2.5l-1.8,2.5Z" class="g3_1" />
<path d="M41.4,464.9l0,-157.5" class="g2_1" />
<path d="M41.4,304.3L39,309.2l2.4,-1.8l2.5,1.8Z" class="g3_1" />
<text 
x="74" 
y="483" 
dx="0" 
class="s1_1"
>5</text>

<text 
x="143" 
y="483" 
dx="0,0" 
class="s1_1"
>15</text>

<text 
x="216" 
y="483" 
dx="0,0" 
class="s1_1"
>25</text>

<text 
x="5" 
y="433" 
dx="0,0,0,0" 
class="s1_1"
>0.25</text>

<text 
x="12" 
y="396" 
dx="0,0,0" 
class="s1_1"
>0.5</text>

<text 
x="5" 
y="360" 
dx="0,0,0,0" 
class="s1_1"
>0.75</text>

<text 
x="24" 
y="323" 
dx="0" 
class="s1_1"
>1</text>

<path d="M41.4,318.9l1.9,0.4l1.8,0.5l1.9,0.4l1.8,0.4l1.9,0.4l1.8,0.5l1.8,0.4l1.9,0.4l1.8,0.4l1.9,0.5l1.8,0.4l1.9,0.4l1.8,0.4l1.9,0.4l1.8,0.5l1.9,0.4l1.8,0.4l1.8,0.4l1.9,0.4l1.8,0.4l1.9,0.4l1.8,0.4l1.9,0.4l1.8,0.4l1.9,0.5l1.8,0.4l1.9,0.4l1.8,0.4l1.8,0.4l1.9,0.4l1.8,0.3l1.9,0.4l1.8,0.4l1.9,0.4l1.8,0.4l1.9,0.4l1.8,0.4l1.8,0.4l1.9,0.4l1.8,0.4l1.9,0.3l1.8,0.4l1.9,0.4l1.8,0.4l1.9,0.4l1.8,0.4l1.9,0.3l1.8,0.4l1.8,0.4l1.9,0.4l1.8,0.3l1.9,0.4l1.8,0.4l1.9,0.3l1.8,0.4l1.9,0.4l1.8,0.3l1.8,0.4l1.9,0.4l1.8,0.3l1.9,0.4l1.8,0.4l1.9,0.3l1.8,0.4l1.9,0.3l1.8,0.4l1.9,0.4l1.8,0.3l1.8,0.4l1.9,0.3l1.8,0.4l1.9,0.3l1.8,0.4l1.9,0.3l1.8,0.4l1.9,0.3l1.8,0.4l1.9,0.3l1.8,0.4l1.8,0.3l1.9,0.3l1.8,0.4l1.9,0.3l1.8,0.4l1.9,0.3l1.8,0.3l1.9,0.4l1.8,0.3l1.8,0.3l1.9,0.4l1.8,0.3l1.9,0.3l1.8,0.4l1.9,0.3l1.8,0.3l1.9,0.3l1.8,0.4l1.9,0.3l1.8,0.3" class="g4_1" />
<path d="M41.4,318.9l1.9,0l1.8,0l1.9,0l1.8,0.1l1.9,0l1.8,0.1l1.8,0l1.9,0.1l1.8,0.1l1.9,0.1l1.8,0l1.9,0.2l1.8,0.1l1.9,0.1l1.8,0.1l1.9,0.2l1.8,0.1l1.8,0.2l1.9,0.1l1.8,0.2l1.9,0.2l1.8,0.2l1.9,0.2l1.8,0.2l1.9,0.2l1.8,0.3l1.9,0.2l1.8,0.2l1.8,0.3l1.9,0.3l1.8,0.2l1.9,0.3l1.8,0.3l1.9,0.3l1.8,0.3l1.9,0.3l1.8,0.3l1.8,0.4l1.9,0.3l1.8,0.4l1.9,0.3l1.8,0.4l1.9,0.3l1.8,0.4l1.9,0.4l1.8,0.4l1.9,0.4l1.8,0.4l1.8,0.4l1.9,0.4l1.8,0.4l1.9,0.5l1.8,0.4l1.9,0.5l1.8,0.4l1.9,0.5l1.8,0.5l1.8,0.4l1.9,0.5l1.8,0.5L154,335l1.8,0.5l1.9,0.5l1.8,0.5l1.9,0.5l1.8,0.6l1.9,0.5l1.8,0.5l1.8,0.6l1.9,0.5l1.8,0.6l1.9,0.5l1.8,0.6L178,342l1.8,0.5l1.9,0.6l1.8,0.6l1.9,0.6l1.8,0.6l1.8,0.6l1.9,0.6l1.8,0.6l1.9,0.6l1.8,0.6l1.9,0.6l1.8,0.7l1.9,0.6l1.8,0.6l1.8,0.7l1.9,0.6l1.8,0.6l1.9,0.7l1.8,0.6l1.9,0.7l1.8,0.6l1.9,0.7l1.8,0.7l1.9,0.6l1.8,0.7" class="g5_1" />
<path d="M41.4,318.9l1.9,0l1.8,0l1.9,0l1.8,0.1l1.9,0l1.8,0.1l1.8,0l1.9,0.1l1.8,0.1l1.9,0.1l1.8,0.1l1.9,0.1l1.8,0.1l1.9,0.2l1.8,0.1l1.9,0.2l1.8,0.2l1.8,0.1l1.9,0.2l1.8,0.2l1.9,0.2l1.8,0.2l1.9,0.2l1.8,0.3l1.9,0.2l1.8,0.3l1.9,0.2l1.8,0.3l1.8,0.3l1.9,0.3l1.8,0.3l1.9,0.3l1.8,0.3l1.9,0.3l1.8,0.3l1.9,0.4l1.8,0.3l1.8,0.4l1.9,0.3l1.8,0.4l1.9,0.4l1.8,0.4l1.9,0.4l1.8,0.4l1.9,0.4l1.8,0.4l1.9,0.4l1.8,0.4l1.8,0.5l1.9,0.4l1.8,0.5l1.9,0.4l1.8,0.5l1.9,0.4l1.8,0.5l1.9,0.5l1.8,0.5l1.8,0.5l1.9,0.5l1.8,0.5l1.9,0.5l1.8,0.5l1.9,0.5l1.8,0.6l1.9,0.5l1.8,0.5l1.9,0.6l1.8,0.5l1.8,0.6l1.9,0.5l1.8,0.6l1.9,0.5l1.8,0.6l1.9,0.6l1.8,0.6l1.9,0.5l1.8,0.6l1.9,0.6l1.8,0.6l1.8,0.6l1.9,0.6l1.8,0.6l1.9,0.6l1.8,0.6l1.9,0.6l1.8,0.6l1.9,0.6l1.8,0.6l1.8,0.6l1.9,0.6l1.8,0.6l1.9,0.7l1.8,0.6l1.9,0.6l1.8,0.6l1.9,0.6l1.8,0.7l1.9,0.6l1.8,0.6" class="g6_1" />
<path d="M44.5,318.6c0,-1.7,-1.4,-3.1,-3.1,-3.1c-1.7,0,-3.1,1.4,-3.1,3.1c0,1.7,1.4,3.1,3.1,3.1c1.7,0,3.1,-1.4,3.1,-3.1Z" class="g7_1" />
<path d="M137,350c0,-1.7,-1.4,-3.1,-3.1,-3.1c-1.7,0,-3.1,1.4,-3.1,3.1c0,1.7,1.4,3.1,3.1,3.1c1.7,0,3.1,-1.4,3.1,-3.1Z" class="g7_1" />
<path d="M44.5,318.6c0,-1.7,-1.4,-3.1,-3.1,-3.1c-1.7,0,-3.1,1.4,-3.1,3.1c0,1.7,1.4,3.1,3.1,3.1c1.7,0,3.1,-1.4,3.1,-3.1Z" class="g7_1" />
<path d="M178.5,344.5c0,-1.7,-1.4,-3.1,-3.1,-3.1c-1.7,0,-3.1,1.4,-3.1,3.1c0,1.7,1.4,3.1,3.1,3.1c1.7,0,3.1,-1.4,3.1,-3.1Z" class="g7_1" />
<path d="M87.1,324.3c0,-1.7,-1.4,-3.1,-3.1,-3.1c-1.7,0,-3.1,1.4,-3.1,3.1c0,1.7,1.4,3.1,3.1,3.1c1.7,0,3.1,-1.4,3.1,-3.1Z" class="g7_1" />
<path d="M44.5,318.6c0,-1.7,-1.4,-3.1,-3.1,-3.1c-1.7,0,-3.1,1.4,-3.1,3.1c0,1.7,1.4,3.1,3.1,3.1c1.7,0,3.1,-1.4,3.1,-3.1Z" class="g7_1" />
<path d="M177.3,373.8c0,-1.7,-1.4,-3.1,-3.1,-3.1c-1.7,0,-3.1,1.4,-3.1,3.1c0,1.7,1.4,3.1,3.1,3.1c1.7,0,3.1,-1.4,3.1,-3.1Z" class="g7_1" />
<path d="M89.7,354.9c0,-1.7,-1.4,-3.1,-3.1,-3.1c-1.7,0,-3.1,1.4,-3.1,3.1c0,1.7,1.4,3.1,3.1,3.1c1.7,0,3.1,-1.4,3.1,-3.1Z" class="g7_1" />
<path d="M78.2,338.2c0,-1.7,-1.4,-3.1,-3.1,-3.1c-1.7,0,-3.1,1.4,-3.1,3.1c0,1.7,1.4,3.1,3.1,3.1c1.7,0,3.1,-1.4,3.1,-3.1Z" class="g7_1" />
<path d="M44.5,318.6c0,-1.7,-1.4,-3.1,-3.1,-3.1c-1.7,0,-3.1,1.4,-3.1,3.1c0,1.7,1.4,3.1,3.1,3.1c1.7,0,3.1,-1.4,3.1,-3.1Z" class="g7_1" />
<path d="M227.2,351c0,-1.7,-1.4,-3.1,-3.1,-3.1c-1.7,0,-3.1,1.4,-3.1,3.1c0,1.7,1.4,3.1,3.1,3.1c1.7,0,3.1,-1.4,3.1,-3.1Z" class="g7_1" />
<path d="M134.9,327.3c0,-1.7,-1.4,-3.1,-3.1,-3.1c-1.7,0,-3.1,1.4,-3.1,3.1c0,1.7,1.4,3.1,3.1,3.1c1.7,0,3.1,-1.4,3.1,-3.1Z" class="g7_1" />
<path d="M95.7,329.9c0,-1.7,-1.4,-3.1,-3.1,-3.1c-1.7,0,-3.1,1.4,-3.1,3.1c0,1.8,1.4,3.1,3.1,3.1c1.7,0,3.1,-1.3,3.1,-3.1Z" class="g7_1" />
<path d="M99.3,353.3c0,-1.7,-1.4,-3,-3.1,-3c-1.7,0,-3.1,1.3,-3.1,3c0,1.8,1.4,3.1,3.1,3.1c1.7,0,3.1,-1.3,3.1,-3.1Z" class="g7_1" />
<path d="M44.5,318.6c0,-1.7,-1.4,-3.1,-3.1,-3.1c-1.7,0,-3.1,1.4,-3.1,3.1c0,1.7,1.4,3.1,3.1,3.1c1.7,0,3.1,-1.4,3.1,-3.1Z" class="g7_1" />
<path d="M222.3,337.1c0,-1.7,-1.4,-3,-3.1,-3c-1.7,0,-3.1,1.3,-3.1,3c0,1.8,1.4,3.1,3.1,3.1c1.7,0,3.1,-1.3,3.1,-3.1Z" class="g7_1" />
<path d="M132.2,336.3c0,-1.7,-1.4,-3.1,-3.1,-3.1c-1.7,0,-3.1,1.4,-3.1,3.1c0,1.7,1.4,3.1,3.1,3.1c1.7,0,3.1,-1.4,3.1,-3.1Z" class="g7_1" />
<path d="M100.2,334c0,-1.7,-1.4,-3.1,-3.1,-3.1c-1.7,0,-3.1,1.4,-3.1,3.1c0,1.7,1.4,3.1,3.1,3.1c1.7,0,3.1,-1.4,3.1,-3.1Z" class="g7_1" />
<path d="M89.7,361.2c0,-1.7,-1.4,-3.1,-3.1,-3.1c-1.7,0,-3.1,1.4,-3.1,3.1c0,1.7,1.4,3.1,3.1,3.1c1.7,0,3.1,-1.4,3.1,-3.1Z" class="g7_1" />
<path d="M66.4,328.1c0,-1.7,-1.3,-3.1,-3,-3.1c-1.8,0,-3.1,1.4,-3.1,3.1c0,1.7,1.3,3.1,3.1,3.1c1.7,0,3,-1.4,3,-3.1Z" class="g7_1" />
<path d="M44.5,318.6c0,-1.7,-1.4,-3.1,-3.1,-3.1c-1.7,0,-3.1,1.4,-3.1,3.1c0,1.7,1.4,3.1,3.1,3.1c1.7,0,3.1,-1.4,3.1,-3.1Z" class="g7_1" />
<path d="M227.3,336.1c0,-1.7,-1.3,-3.1,-3.1,-3.1c-1.7,0,-3,1.4,-3,3.1c0,1.7,1.3,3.1,3,3.1c1.8,0,3.1,-1.4,3.1,-3.1Z" class="g7_1" />
<path d="M142,339.9c0,-1.7,-1.4,-3,-3.1,-3c-1.7,0,-3.1,1.3,-3.1,3c0,1.8,1.4,3.1,3.1,3.1c1.7,0,3.1,-1.3,3.1,-3.1Z" class="g7_1" />
<path d="M117.6,333.4c0,-1.7,-1.4,-3.1,-3.1,-3.1c-1.7,0,-3.1,1.4,-3.1,3.1c0,1.7,1.4,3.1,3.1,3.1c1.7,0,3.1,-1.4,3.1,-3.1Z" class="g7_1" />
<path d="M96.8,357.6c0,-1.7,-1.3,-3,-3.1,-3c-1.7,0,-3,1.3,-3,3c0,1.8,1.3,3.1,3,3.1c1.8,0,3.1,-1.3,3.1,-3.1Z" class="g7_1" />
<path d="M89,331.3c0,-1.7,-1.4,-3.1,-3.1,-3.1c-1.8,0,-3.1,1.4,-3.1,3.1c0,1.7,1.3,3.1,3.1,3.1c1.7,0,3.1,-1.4,3.1,-3.1Z" class="g7_1" />
<path d="M67.6,320.5c0,-1.7,-1.4,-3.1,-3.1,-3.1c-1.7,0,-3.1,1.4,-3.1,3.1c0,1.8,1.4,3.1,3.1,3.1c1.7,0,3.1,-1.3,3.1,-3.1Z" class="g7_1" />
<path d="M44.5,318.6c0,-1.7,-1.4,-3.1,-3.1,-3.1c-1.7,0,-3.1,1.4,-3.1,3.1c0,1.7,1.4,3.1,3.1,3.1c1.7,0,3.1,-1.4,3.1,-3.1Z" class="g7_1" />
<path d="M190.7,339.5c0,-1.7,-1.4,-3.1,-3.1,-3.1c-1.7,0,-3.1,1.4,-3.1,3.1c0,1.7,1.4,3.1,3.1,3.1c1.7,0,3.1,-1.4,3.1,-3.1Z" class="g7_1" />
<path d="M109.8,341.8c0,-1.7,-1.3,-3.1,-3,-3.1c-1.8,0,-3.1,1.4,-3.1,3.1c0,1.7,1.3,3.1,3.1,3.1c1.7,0,3,-1.4,3,-3.1Z" class="g7_1" />
<path d="M100.2,338.6c0,-1.7,-1.4,-3.1,-3.1,-3.1c-1.7,0,-3.1,1.4,-3.1,3.1c0,1.7,1.4,3.1,3.1,3.1c1.7,0,3.1,-1.4,3.1,-3.1Z" class="g7_1" />
<path d="M67.9,366.4c0,-1.8,-1.4,-3.1,-3.1,-3.1c-1.7,0,-3.1,1.3,-3.1,3.1c0,1.7,1.4,3,3.1,3c1.7,0,3.1,-1.3,3.1,-3Z" class="g7_1" />
<path d="M103.4,331.7c0,-1.7,-1.4,-3.1,-3.1,-3.1c-1.7,0,-3.1,1.4,-3.1,3.1c0,1.7,1.4,3.1,3.1,3.1c1.7,0,3.1,-1.4,3.1,-3.1Z" class="g7_1" />
<path d="M85.9,319.5c0,-1.7,-1.4,-3.1,-3.1,-3.1c-1.7,0,-3.1,1.4,-3.1,3.1c0,1.7,1.4,3.1,3.1,3.1c1.7,0,3.1,-1.4,3.1,-3.1Z" class="g7_1" />
<path d="M81.8,321c0,-1.8,-1.4,-3.1,-3.1,-3.1c-1.7,0,-3.1,1.3,-3.1,3.1c0,1.7,1.4,3,3.1,3c1.7,0,3.1,-1.3,3.1,-3Z" class="g7_1" />
<path d="M44.5,318.6c0,-1.7,-1.4,-3.1,-3.1,-3.1c-1.7,0,-3.1,1.4,-3.1,3.1c0,1.7,1.4,3.1,3.1,3.1c1.7,0,3.1,-1.4,3.1,-3.1Z" class="g7_1" />
<path d="M227.8,336.1c0,-1.8,-1.4,-3.1,-3.1,-3.1c-1.7,0,-3.1,1.3,-3.1,3.1c0,1.7,1.4,3,3.1,3c1.7,0,3.1,-1.3,3.1,-3Z" class="g7_1" />
<path d="M149.2,339.2c0,-1.7,-1.4,-3.1,-3.1,-3.1c-1.7,0,-3.1,1.4,-3.1,3.1c0,1.7,1.4,3.1,3.1,3.1c1.7,0,3.1,-1.4,3.1,-3.1Z" class="g7_1" />
<path d="M132.5,335.1c0,-1.7,-1.4,-3.1,-3.1,-3.1c-1.7,0,-3.1,1.4,-3.1,3.1c0,1.7,1.4,3.1,3.1,3.1c1.7,0,3.1,-1.4,3.1,-3.1Z" class="g7_1" />
<path d="M105.3,367.7c0,-1.7,-1.4,-3.1,-3.1,-3.1c-1.7,0,-3.1,1.4,-3.1,3.1c0,1.7,1.4,3.1,3.1,3.1c1.7,0,3.1,-1.4,3.1,-3.1Z" class="g7_1" />
<path d="M110.7,335.7c0,-1.7,-1.4,-3.1,-3.1,-3.1c-1.7,0,-3.1,1.4,-3.1,3.1c0,1.7,1.4,3.1,3.1,3.1c1.7,0,3.1,-1.4,3.1,-3.1Z" class="g7_1" />
<path d="M89,321.3c0,-1.7,-1.4,-3.1,-3.1,-3.1c-1.8,0,-3.1,1.4,-3.1,3.1c0,1.7,1.3,3.1,3.1,3.1c1.7,0,3.1,-1.4,3.1,-3.1Z" class="g7_1" />
<path d="M66.4,321.5c0,-1.7,-1.3,-3.1,-3,-3.1c-1.8,0,-3.1,1.4,-3.1,3.1c0,1.7,1.3,3.1,3.1,3.1c1.7,0,3,-1.4,3,-3.1Z" class="g7_1" />
<path d="M83.8,321.1c0,-1.7,-1.3,-3.1,-3.1,-3.1c-1.7,0,-3.1,1.4,-3.1,3.1c0,1.7,1.4,3.1,3.1,3.1c1.8,0,3.1,-1.4,3.1,-3.1Z" class="g7_1" />
<path d="M44.5,318.6c0,-1.7,-1.4,-3.1,-3.1,-3.1c-1.7,0,-3.1,1.4,-3.1,3.1c0,1.7,1.4,3.1,3.1,3.1c1.7,0,3.1,-1.4,3.1,-3.1Z" class="g7_1" />
<text 
x="200" 
y="455" 
dx="0" 
class="s2_1"
>r</text>

<text 
x="207" 
y="455" 
dx="0" 
class="s1_1"
>(</text>

<text 
x="213" 
y="455" 
dx="0" 
class="s2_1"
>m</text>

<text 
x="227" 
y="455" 
dx="0" 
class="s1_1"
>)</text>

<text 
x="46" 
y="316" 
dx="0,0,0,0" 
class="s1_1"
>corr</text>

<text 
x="96" 
y="286" 
dx="0,-1.3,0,0,0.4,0,0,0,0,0,0" 
class="s1_1"
>Temperature</text>

<path d="M40.9,468.7l69.3,0l0,-59.7l-69.3,0l0,59.7Z" class="g8_1" />
<path d="M46.3,421l13.2,0l13.2,0" class="g4_1" />
<text 
x="82" 
y="424" 
dx="0" 
class="s2_1"
>ρ</text>

<text 
x="90" 
y="420" 
dx="0" 
class="s3_1"
>I</text>

<path d="M46.3,438.9l13.2,0l13.2,0" class="g5_1" />
<text 
x="79" 
y="442" 
dx="0" 
class="s2_1"
>ρ</text>

<text 
x="87" 
y="438" 
dx="0,0.6" 
class="s3_1"
>II</text>

<path d="M46.3,456.7l13.2,0l13.2,0" class="g6_1" />
<text 
x="76" 
y="460" 
dx="0" 
class="s2_1"
>ρ</text>

<text 
x="84" 
y="456" 
dx="0,0.6,0.6" 
class="s3_1"
>III</text>

<path d="M314.6,468.2l0,-6.6m31.8,6.6l0,-6.6m31.8,6.6l0,-6.6m31.8,6.6l0,-6.6m31.8,6.6l0,-6.6m31.8,6.6l0,-6.6" class="g1_1" />
<path d="M279.4,428.4l6.6,0m-6.6,-36.5l6.6,0m-6.6,-36.5l6.6,0m-6.6,-36.5l6.6,0" class="g1_1" />
<path d="M282.7,464.9l194.2,0" class="g2_1" />
<path d="M480,464.9l-4.9,-2.5l1.8,2.5l-1.8,2.5Z" class="g3_1" />
<path d="M282.7,464.9l0,-157.5" class="g2_1" />
<path d="M282.7,304.3l-2.4,4.9l2.4,-1.8l2.5,1.8Z" class="g3_1" />
<text 
x="310" 
y="483" 
dx="0" 
class="s1_1"
>1</text>

<text 
x="342" 
y="483" 
dx="0" 
class="s1_1"
>2</text>

<text 
x="374" 
y="483" 
dx="0" 
class="s1_1"
>3</text>

<text 
x="406" 
y="483" 
dx="0" 
class="s1_1"
>4</text>

<text 
x="437" 
y="483" 
dx="0" 
class="s1_1"
>5</text>

<text 
x="469" 
y="483" 
dx="0" 
class="s1_1"
>6</text>

<text 
x="246" 
y="433" 
dx="0,0,0,0" 
class="s1_1"
>0.25</text>

<text 
x="254" 
y="396" 
dx="0,0,0" 
class="s1_1"
>0.5</text>

<text 
x="246" 
y="360" 
dx="0,0,0,0" 
class="s1_1"
>0.75</text>

<text 
x="266" 
y="323" 
dx="0" 
class="s1_1"
>1</text>

<path d="M282.7,332.6l2,2.2l1.9,2.1l1.9,2.1l1.9,2l2,2.1l1.9,2l1.9,1.9l2,1.9l1.9,1.9l1.9,1.9l1.9,1.8l2,1.8l1.9,1.8l1.9,1.7l2,1.8l1.9,1.6l1.9,1.7l1.9,1.6l2,1.6l1.9,1.6l1.9,1.6l2,1.5l1.9,1.5l1.9,1.5l1.9,1.4l2,1.5l1.9,1.4l1.9,1.4l2,1.3l1.9,1.4l1.9,1.3l1.9,1.3l2,1.3l1.9,1.2l1.9,1.2l2,1.3l1.9,1.2l1.9,1.1l1.9,1.2l2,1.1l1.9,1.1l1.9,1.1l2,1.1l1.9,1.1l1.9,1l1.9,1.1l2,1l1.9,1l1.9,1l2,0.9l1.9,1l1.9,0.9l1.9,0.9l2,0.9l1.9,0.9l1.9,0.9l2,0.8l1.9,0.9l1.9,0.8l1.9,0.8l2,0.8l1.9,0.8l1.9,0.8l2,0.8l1.9,0.7l1.9,0.8l1.9,0.7l2,0.7l1.9,0.7l1.9,0.7l2,0.7l1.9,0.7l1.9,0.6l1.9,0.7l2,0.6l1.9,0.6l1.9,0.7l1.9,0.6l2,0.6l1.9,0.5l1.9,0.6l2,0.6l1.9,0.6l1.9,0.5l1.9,0.5l2,0.6l1.9,0.5l1.9,0.5l2,0.5l1.9,0.5l1.9,0.5l1.9,0.5l2,0.5l1.9,0.4l1.9,0.5l2,0.5l1.9,0.4l1.9,0.4l1.9,0.5" class="g4_1" />
<path d="M282.7,323.9l2,2.2l1.9,2.2l1.9,2.1l1.9,2.1l2,2.1l1.9,2.1l1.9,2l2,2l1.9,1.9l1.9,1.9l1.9,1.9l2,1.9l1.9,1.8l1.9,1.8l2,1.8l1.9,1.7l1.9,1.8l1.9,1.7l2,1.6l1.9,1.7l1.9,1.6l2,1.6l1.9,1.5l1.9,1.6l1.9,1.5l2,1.5l1.9,1.4l1.9,1.5l2,1.4l1.9,1.4l1.9,1.4l1.9,1.3l2,1.4l1.9,1.3l1.9,1.3l2,1.3l1.9,1.2l1.9,1.2l1.9,1.3l2,1.2l1.9,1.1l1.9,1.2l2,1.1l1.9,1.2l1.9,1.1l1.9,1l2,1.1l1.9,1.1l1.9,1l2,1l1.9,1l1.9,1l1.9,1l2,0.9l1.9,1l1.9,0.9l2,0.9l1.9,0.9l1.9,0.9l1.9,0.9l2,0.8l1.9,0.9l1.9,0.8l2,0.8l1.9,0.8l1.9,0.8l1.9,0.8l2,0.8l1.9,0.7l1.9,0.8l2,0.7l1.9,0.7l1.9,0.7l1.9,0.7l2,0.7l1.9,0.7l1.9,0.6l1.9,0.7l2,0.6l1.9,0.7l1.9,0.6l2,0.6l1.9,0.6l1.9,0.6l1.9,0.6l2,0.6l1.9,0.5l1.9,0.6l2,0.6l1.9,0.5l1.9,0.5l1.9,0.6l2,0.5l1.9,0.5l1.9,0.5l2,0.5l1.9,0.5l1.9,0.4l1.9,0.5" class="g5_1" />
<path d="M282.7,324.3l2,2.6l1.9,2.4l1.9,2.5l1.9,2.3l2,2.3l1.9,2.3l1.9,2.2l2,2.1l1.9,2.1l1.9,2l1.9,2l2,2l1.9,1.9l1.9,1.9l2,1.8l1.9,1.8l1.9,1.8l1.9,1.7l2,1.6l1.9,1.7l1.9,1.6l2,1.6l1.9,1.5l1.9,1.5l1.9,1.5l2,1.4l1.9,1.4l1.9,1.4l2,1.4l1.9,1.3l1.9,1.3l1.9,1.3l2,1.2l1.9,1.3l1.9,1.2l2,1.1l1.9,1.2l1.9,1.1l1.9,1.1l2,1.1l1.9,1.1l1.9,1l2,1l1.9,1l1.9,1l1.9,1l2,0.9l1.9,1l1.9,0.9l2,0.9l1.9,0.9l1.9,0.8l1.9,0.9l2,0.8l1.9,0.8l1.9,0.8l2,0.8l1.9,0.8l1.9,0.8l1.9,0.7l2,0.7l1.9,0.8l1.9,0.7l2,0.7l1.9,0.7l1.9,0.6l1.9,0.7l2,0.6l1.9,0.7l1.9,0.6l2,0.6l1.9,0.6l1.9,0.6l1.9,0.6l2,0.6l1.9,0.5l1.9,0.6l1.9,0.6l2,0.5l1.9,0.5l1.9,0.5l2,0.6l1.9,0.5l1.9,0.5l1.9,0.5l2,0.4l1.9,0.5l1.9,0.5l2,0.4l1.9,0.5l1.9,0.4l1.9,0.5l2,0.4l1.9,0.4l1.9,0.4l2,0.4l1.9,0.5l1.9,0.4l1.9,0.3" class="g6_1" />
<path d="M285.8,334.8c0,-1.7,-1.4,-3.1,-3.1,-3.1c-1.7,0,-3.1,1.4,-3.1,3.1c0,1.7,1.4,3.1,3.1,3.1c1.7,0,3.1,-1.4,3.1,-3.1Z" class="g7_1" />
<path d="M317.6,345c0,-1.8,-1.3,-3.1,-3,-3.1c-1.8,0,-3.1,1.3,-3.1,3.1c0,1.7,1.3,3,3.1,3c1.7,0,3,-1.3,3,-3Z" class="g7_1" />
<path d="M349.5,364.6c0,-1.7,-1.4,-3.1,-3.1,-3.1c-1.7,0,-3.1,1.4,-3.1,3.1c0,1.7,1.4,3.1,3.1,3.1c1.7,0,3.1,-1.4,3.1,-3.1Z" class="g7_1" />
<path d="M381.3,388.2c0,-1.7,-1.4,-3.1,-3.1,-3.1c-1.7,0,-3.1,1.4,-3.1,3.1c0,1.7,1.4,3.1,3.1,3.1c1.7,0,3.1,-1.4,3.1,-3.1Z" class="g7_1" />
<path d="M413.1,413.2c0,-1.7,-1.4,-3.1,-3.1,-3.1c-1.7,0,-3.1,1.4,-3.1,3.1c0,1.7,1.4,3.1,3.1,3.1c1.7,0,3.1,-1.4,3.1,-3.1Z" class="g7_1" />
<path d="M444.9,438c0,-1.7,-1.4,-3.1,-3.1,-3.1c-1.7,0,-3.1,1.4,-3.1,3.1c0,1.7,1.4,3.1,3.1,3.1c1.7,0,3.1,-1.4,3.1,-3.1Z" class="g7_1" />
<path d="M476.7,461.9c0,-1.7,-1.3,-3.1,-3.1,-3.1c-1.7,0,-3,1.4,-3,3.1c0,1.7,1.3,3.1,3,3.1c1.8,0,3.1,-1.4,3.1,-3.1Z" class="g7_1" />
<text 
x="448" 
y="455" 
dx="0" 
class="s2_1"
>t</text>

<text 
x="453" 
y="455" 
dx="0" 
class="s1_1"
>(</text>

<text 
x="459" 
y="455" 
dx="0" 
class="s2_1"
>h</text>

<text 
x="468" 
y="455" 
dx="0" 
class="s1_1"
>)</text>

<text 
x="288" 
y="316" 
dx="0,0,0,0" 
class="s1_1"
>corr</text>

<text 
x="337" 
y="286" 
dx="0,-1.3,0,0,0.4,0,0,0,0,0,0" 
class="s1_1"
>Temperature</text>

<path d="M282.2,468.7l69.3,0l0,-59.7l-69.3,0l0,59.7Z" class="g8_1" />
<path d="M287.6,421l13.2,0l13.2,0" class="g4_1" />
<text 
x="323" 
y="424" 
dx="0" 
class="s2_1"
>ρ</text>

<text 
x="331" 
y="420" 
dx="0" 
class="s3_1"
>I</text>

<path d="M287.6,438.9l13.2,0l13.2,0" class="g5_1" />
<text 
x="320" 
y="442" 
dx="0" 
class="s2_1"
>ρ</text>

<text 
x="328" 
y="438" 
dx="0,0.6" 
class="s3_1"
>II</text>

<path d="M287.6,456.7l13.2,0l13.2,0" class="g6_1" />
<text 
x="317" 
y="460" 
dx="0" 
class="s2_1"
>ρ</text>

<text 
x="325" 
y="456" 
dx="0,0.6,0.6" 
class="s3_1"
>III</text>

<text 
x="6" 
y="250" 
dx="0,0,0,0,1.3,0,0,0,0,0,0,0,0,0,1.3,0,0,0,0,0,0,0,0,0,0,1.3,0,0,0,0,0,0,0,0,0,0" 
class="s1_1"
>(a) Empirical space-time correlation</text>

<text 
x="6" 
y="268" 
dx="0,0,0,0,1.3,0,0,0,0,1.3,0,0,0,1.3,0,0,0" 
class="s1_1"
>for time lag zero</text>

<text 
x="258" 
y="250" 
dx="0,0,0,0,1.3,0,0,0,0,0,0,0,0,0,1.3,0,0,0,0.4,0,0,0,0,1.3,0,0,0,0,0,0,0,0,0,0,0" 
class="s1_1"
>(b) Empirical temporal correlations</text>

<text 
x="6" 
y="520" 
dx="0,0,0,0,1.3,0,0,0,0,0,0,0,0,0,1.3,0,0,0,0,0,0,0,0,0,0,1.3,0,0,0,0,0,0,0,0,0,0" 
class="s1_1"
>(c) Empirical space-time correlation</text>

<text 
x="6" 
y="539" 
dx="0,0,0,0,1.3,0,0,0,0,1.3,0,0,0,1.3,0,0,0" 
class="s1_1"
>for time lag zero</text>

<text 
x="258" 
y="520" 
dx="0,0,0,0,1.3,0,0,0,0,0,0,0,0,0,1.3,0,0,0,0.4,0,0,0,0,1.3,0,0,0,0,0,0,0,0,0,0,0" 
class="s1_1"
>(d) Empirical temporal correlations</text>

<text 
x="0" 
y="578" 
dx="0,0,0,0,0,0,0,1.8,0,0,4,0,0,0,0,0,0,0,0,0,1.8,0,0,0,0,0,0,0,0,0,0,1.8,0,0,0,0,0,0,0,0,0,0,0,1.8,0.4,0,0,-0.4,0,0,1.8,0,0,0,0,0,0,0,1.8,0,0,0,0,0,0,0,0,0,1.8,0,-0.4,-0.9,0,0,0,0,0,0" 
class="s4_1"
>Figure 1: Empirical space-time correlation points plotted alongside covariance</text>

<text 
x="0" 
y="596" 
dx="0,0,0.4,0,0,0,0,1.3,0,0,0,0,1.3,0,0,0,0,0,0,0,1.3,0,0,0,0,0,0,0,0,0,0,1.3,0,0,0,0,0,0,0,0,0,1.3,0,0,0,0,1.3,0,0,0,1.3,0,0,0,0" 
class="s4_1"
>models with scaling parameters extracted from the data.</text>



<!-- Any embedded fonts defined here -->
<style type="text/css" ><![CDATA[

@font-face {
	font-family: CMMI10_8;
	src: url("fonts/CMMI10_8.woff") format("woff");
}

@font-face {
	font-family: CMMI5_9;
	src: url("fonts/CMMI5_9.woff") format("woff");
}

@font-face {
	font-family: CMR10_7;
	src: url("fonts/CMR10_7.woff") format("woff");
}

]]></style>

</svg>
